<svg xmlns="http://www.w3.org/2000/svg" width="20" height="20" viewBox="0 0 20 20">
  <g id="sidebar-icn-04-users" transform="translate(-104 -92)">
    <rect id="Rectangle_144" data-name="Rectangle 144" width="20" height="20" transform="translate(104 92)" fill="none"/>
    <g id="customer" transform="translate(105 61)">
      <path id="Path_642" data-name="Path 642" d="M172.059,39.117A3.059,3.059,0,1,0,169,36.059,3.062,3.062,0,0,0,172.059,39.117Zm0-5.062a2,2,0,1,1-2,2A2.006,2.006,0,0,1,172.059,34.055Z" transform="translate(-163.059)" fill="#ffad4e"/>
      <path id="Path_643" data-name="Path 643" d="M378.934,100.867A1.934,1.934,0,1,0,377,98.934,1.936,1.936,0,0,0,378.934,100.867Zm0-2.812a.879.879,0,1,1-.879.879A.88.88,0,0,1,378.934,98.055Z" transform="translate(-363.746 -61.75)" fill="#ffad4e"/>
      <path id="Path_644" data-name="Path 644" d="M15.613,241H14.8a2.391,2.391,0,0,0-2.169,1.383A4.244,4.244,0,0,0,9.491,241H8.509a4.244,4.244,0,0,0-3.137,1.383A2.391,2.391,0,0,0,3.2,241H2.387A2.383,2.383,0,0,0,0,243.373v3.839a1.033,1.033,0,0,0,1.034,1.03H4.259a1.233,1.233,0,0,0,1.226,1.125h7.03a1.233,1.233,0,0,0,1.226-1.125h3.188A1.07,1.07,0,0,0,18,247.176v-3.8A2.383,2.383,0,0,0,15.613,241ZM1.055,243.373a1.327,1.327,0,0,1,1.332-1.318H3.2a1.327,1.327,0,0,1,1.332,1.318v.361c-.355.923-.281,1.477-.281,3.454h-3.2Zm11.637,4.763a.177.177,0,0,1-.177.177H5.485a.177.177,0,0,1-.177-.177v-2.881a3.2,3.2,0,0,1,3.2-3.2h.983a3.2,3.2,0,0,1,3.2,3.2Zm4.254-.96c0,.018.2.012-3.2.012,0-1.992.073-2.532-.281-3.454v-.361a1.327,1.327,0,0,1,1.332-1.318h.816a1.327,1.327,0,0,1,1.332,1.318Z" transform="translate(0 -200.688)" fill="#ffad4e"/>
      <path id="Path_645" data-name="Path 645" d="M26.934,100.867A1.934,1.934,0,1,0,25,98.934,1.936,1.936,0,0,0,26.934,100.867Zm0-2.812a.879.879,0,1,1-.879.879A.88.88,0,0,1,26.934,98.055Z" transform="translate(-24.121 -61.75)" fill="#ffad4e"/>
    </g>
  </g>
</svg>
